<svg width="24" height="24" viewBox="0 0 24 24" fill="none" xmlns="http://www.w3.org/2000/svg">
<mask id="path-1-inside-1_9_637" fill="white">
<path fill-rule="evenodd" clip-rule="evenodd" d="M5.5 12C5.5 12.8284 4.82843 13.5 4 13.5C3.17157 13.5 2.5 12.8284 2.5 12C2.5 11.1716 3.17157 10.5 4 10.5C4.82843 10.5 5.5 11.1716 5.5 12ZM13.5 12C13.5 12.8284 12.8284 13.5 12 13.5C11.1716 13.5 10.5 12.8284 10.5 12C10.5 11.1716 11.1716 10.5 12 10.5C12.8284 10.5 13.5 11.1716 13.5 12ZM20 13.5C20.8284 13.5 21.5 12.8284 21.5 12C21.5 11.1716 20.8284 10.5 20 10.5C19.1716 10.5 18.5 11.1716 18.5 12C18.5 12.8284 19.1716 13.5 20 13.5Z"/>
</mask>
<path fill-rule="evenodd" clip-rule="evenodd" d="M5.5 12C5.5 12.8284 4.82843 13.5 4 13.5C3.17157 13.5 2.5 12.8284 2.5 12C2.5 11.1716 3.17157 10.5 4 10.5C4.82843 10.5 5.5 11.1716 5.5 12ZM13.5 12C13.5 12.8284 12.8284 13.5 12 13.5C11.1716 13.5 10.5 12.8284 10.5 12C10.5 11.1716 11.1716 10.5 12 10.5C12.8284 10.5 13.5 11.1716 13.5 12ZM20 13.5C20.8284 13.5 21.5 12.8284 21.5 12C21.5 11.1716 20.8284 10.5 20 10.5C19.1716 10.5 18.5 11.1716 18.5 12C18.5 12.8284 19.1716 13.5 20 13.5Z" fill="#B3B3B3"/>
<path d="M4 14.5C5.38071 14.5 6.5 13.3807 6.5 12H4.5C4.5 12.2761 4.27614 12.5 4 12.5V14.5ZM1.5 12C1.5 13.3807 2.61929 14.5 4 14.5V12.5C3.72386 12.5 3.5 12.2761 3.5 12H1.5ZM4 9.5C2.61929 9.5 1.5 10.6193 1.5 12H3.5C3.5 11.7239 3.72386 11.5 4 11.5V9.5ZM6.5 12C6.5 10.6193 5.38071 9.5 4 9.5V11.5C4.27614 11.5 4.5 11.7239 4.5 12H6.5ZM12 14.5C13.3807 14.5 14.5 13.3807 14.5 12H12.5C12.5 12.2761 12.2761 12.5 12 12.5V14.5ZM9.5 12C9.5 13.3807 10.6193 14.5 12 14.5V12.5C11.7239 12.5 11.5 12.2761 11.5 12H9.5ZM12 9.5C10.6193 9.5 9.5 10.6193 9.5 12H11.5C11.5 11.7239 11.7239 11.5 12 11.5V9.5ZM14.5 12C14.5 10.6193 13.3807 9.5 12 9.5V11.5C12.2761 11.5 12.5 11.7239 12.5 12H14.5ZM20.5 12C20.5 12.2761 20.2761 12.5 20 12.5V14.5C21.3807 14.5 22.5 13.3807 22.5 12H20.5ZM20 11.5C20.2761 11.5 20.5 11.7239 20.5 12H22.5C22.5 10.6193 21.3807 9.5 20 9.5V11.5ZM19.5 12C19.5 11.7239 19.7239 11.5 20 11.5V9.5C18.6193 9.5 17.5 10.6193 17.5 12H19.5ZM20 12.5C19.7239 12.5 19.5 12.2761 19.5 12H17.5C17.5 13.3807 18.6193 14.5 20 14.5V12.5Z" fill="#B3B3B3" mask="url(#path-1-inside-1_9_637)"/>
</svg>
