<svg width="24" height="24" viewBox="0 0 24 24" fill="none" xmlns="http://www.w3.org/2000/svg">
<path fill-rule="evenodd" clip-rule="evenodd" d="M12 3C7.02944 3 3 7.02944 3 12C3 16.9706 7.02944 21 12 21C16.9706 21 21 16.9706 21 12C21 7.02944 16.9706 3 12 3ZM1 12C1 5.92487 5.92487 1 12 1C18.0751 1 23 5.92487 23 12C23 18.0751 18.0751 23 12 23C5.92487 23 1 18.0751 1 12ZM7.79289 12.2929C8.18342 11.9024 8.81658 11.9024 9.20711 12.2929L11 14.0858V7C11 6.44772 11.4477 6 12 6C12.5523 6 13 6.44772 13 7V14.0858L14.7929 12.2929C15.1834 11.9024 15.8166 11.9024 16.2071 12.2929C16.5976 12.6834 16.5976 13.3166 16.2071 13.7071L12.7071 17.2071L12 17.9142L11.2929 17.2071L7.79289 13.7071C7.40237 13.3166 7.40237 12.6834 7.79289 12.2929Z" fill="#B3B3B3"/>
</svg>
